:SAMPLES-PER-SECOND 30
:FULLY-SPECIFIED
:DEGREES
577
root  3.46777 39.947 0.321415 -174.866 -81.8104 174.613
RightUpLeg  -21.7183 -37.3859 1.55183
RightLeg  32.5562 -15.9494 -10.9042
RightFoot  -0.961503 0.014227 -0.261226
RightToes  0.00048216 0.542163 -0.142577
Spine  14.8845 0.55145 -3.75017
Spine1  -0.00135594 -0.617043 3.59197
HEad  -13.4018 -4.6174 -0.82436
LeftShoulder1  4.63806 -8.06503 -34.0161
LeftArm  -17.1104 23.5817 -20.232
LeftForeArm  15.6203 -10.351 -2.54222
LeftHand  -0.25398 0.0180481 5.50724
RightShoulder  3.54405 6.19093 30.597
RightArm  -17.7688 -19.4449 27.2339
RightForeArm  -3.58372 14.8689 4.91535
RightHand  -2.516 8.28358 -21.5563
LeftUpLeg  5.26687 8.4374 -1.72354
LeftLeg  10.2561 22.275 -2.33571
LeftFoot  -15.6721 0.0966311 0.0752429
LeftToes  1.06246e-005 4.65856e-005 -8.18501e-006
578
root  4.14643 39.993 0.3482 -173.785 -82.743 173.304
RightUpLeg  -21.763 -28.9663 -1.6898
RightLeg  34.3604 -9.60833 -7.25706
RightFoot  1.97966 -0.243392 2.20292
RightToes  0.00048216 0.542163 -0.142577
Spine  15.7436 0.634306 -2.90898
Spine1  -0.476718 -0.11581 1.93042
HEad  -13.4256 -4.84752 -1.2937
LeftShoulder1  4.2159 -7.64533 -31.7466
LeftArm  -17.3689 21.906 -18.2122
LeftForeArm  15.0412 -9.36127 -2.28847
LeftHand  -0.25398 0.0180481 5.50724
RightShoulder  3.27687 5.85396 29.0302
RightArm  -18.9841 -18.5903 24.6781
RightForeArm  -2.47367 13.4736 4.62391
RightHand  -2.45532 8.19191 -21.1875
LeftUpLeg  3.7659 9.4652 -1.67703
LeftLeg  11.4493 20.4636 -1.87468
LeftFoot  -14.9894 0.116348 0.829736
LeftToes  1.06246e-005 4.65856e-005 -8.18501e-006
579
root  4.69813 40.0436 0.347226 -176.378 -83.9002 175.158
RightUpLeg  -19.9656 -21.153 -4.62537
RightLeg  34.5817 -4.45815 -3.56196
RightFoot  2.17498 -0.633778 5.5296
RightToes  0.00048216 0.542163 -0.142577
Spine  16.7461 0.493524 -2.03506
Spine1  -1.40732 0.00971824 0.962492
HEad  -12.098 -4.65893 -2.17085
LeftShoulder1  3.7856 -7.2046 -29.2529
LeftArm  -17.6536 21.0999 -16.1853
LeftForeArm  13.6307 -8.4685 -1.98711
LeftHand  -0.25398 0.0180481 5.50724
RightShoulder  2.97162 5.47449 27.0548
RightArm  -20.0836 -17.6799 21.3958
RightForeArm  -4.46672 11.7915 4.39148
RightHand  -2.54212 8.24482 -21.8248
LeftUpLeg  2.98998 10.4545 -1.18462
LeftLeg  12.6473 18.4558 -1.28631
LeftFoot  -14.3997 0.126273 1.48618
LeftToes  1.06246e-005 4.65856e-005 -8.18501e-006
580
root  5.13523 40.1134 0.306194 178.157 -85.2369 179.809
RightUpLeg  -17.4049 -14.9602 -6.45812
RightLeg  34.2351 -3.42379 -2.75087
RightFoot  0.129816 -0.747388 7.4052
RightToes  0.00048216 0.542163 -0.142577
Spine  17.1426 0.278843 -1.73106
Spine1  -2.23374 -0.214406 1.10066
HEad  -10.0206 -4.06909 -2.88353
LeftShoulder1  3.32845 -6.70507 -26.4238
LeftArm  -17.8047 20.8031 -14.2251
LeftForeArm  11.8253 -7.61512 -1.71513
LeftHand  -0.25398 0.0180481 5.50724
RightShoulder  2.61956 5.00074 24.6601
RightArm  -20.9659 -16.4592 17.6741
RightForeArm  -7.80646 10.1038 4.14361
RightHand  -2.54198 7.92614 -22.3169
LeftUpLeg  2.84095 10.4145 -0.594063
LeftLeg  13.127 17.3378 -0.943668
LeftFoot  -13.7419 0.118831 1.72716
LeftToes  1.06246e-005 4.65856e-005 -8.18501e-006
581
root  5.46811 40.1979 0.217268 172.241 -86.4677 -174.886
RightUpLeg  -14.8005 -10.443 -7.34408
RightLeg  33.9008 -5.44563 -4.16927
RightFoot  -1.63035 -0.599281 6.90606
RightToes  0.00048216 0.542163 -0.142577
Spine  16.5767 0.204123 -2.13318
Spine1  -2.48655 -0.497207 1.95902
HEad  -7.88994 -3.37333 -3.09926
LeftShoulder1  2.86586 -6.15713 -23.3521
LeftArm  -18.0078 20.3217 -12.275
LeftForeArm  10.2703 -6.83377 -1.44441
LeftHand  -0.25398 0.0180481 5.50724
RightShoulder  2.20308 4.33183 21.8157
RightArm  -21.4154 -14.9619 14.0744
RightForeArm  -10.2854 8.70243 3.89721
RightHand  -2.51892 7.67988 -22.5168
LeftUpLeg  3.11711 9.19658 -0.210746
LeftLeg  12.5886 17.3819 -1.05978
LeftFoot  -12.9508 0.103782 1.86067
LeftToes  1.06246e-005 4.65856e-005 -8.18501e-006
582
root  5.70805 40.2504 0.0644708 172.33 -87.6183 -175.457
RightUpLeg  -11.9391 -6.95122 -7.93519
RightLeg  32.9372 -6.75151 -4.9334
RightFoot  -2.35938 -0.519101 6.40251
RightToes  0.00048216 0.542163 -0.142577
Spine  15.3928 0.266644 -3.26329
Spine1  -2.33574 -0.727255 2.89658
HEad  -5.9787 -2.77003 -2.91386
LeftShoulder1  2.45858 -5.69148 -20.2501
LeftArm  -18.351 19.5811 -10.1531
LeftForeArm  9.04041 -6.64325 -1.23145
LeftHand  -0.25398 0.0180481 5.50724
RightShoulder  1.74617 3.44959 18.593
RightArm  -21.4747 -13.4655 11.1837
RightForeArm  -11.6205 7.73647 3.7699
RightHand  -2.60621 7.96676 -22.7889
LeftUpLeg  3.50084 7.93024 -0.152942
LeftLeg  11.7895 17.4672 -1.43277
LeftFoot  -12.2487 0.0904431 2.12449
LeftToes  1.06246e-005 4.65856e-005 -8.18501e-006
